<svg xmlns="http://www.w3.org/2000/svg" viewBox="0 0 682.9 633.83"><defs><style>.cls-1{fill:#292829;}.cls-2{fill:#fff;}.cls-3{fill:none;}</style></defs><g id="Layer_2" data-name="Layer 2"><g id="Layer_1-2" data-name="Layer 1"><polygon class="cls-1" points="380.62 38.36 380.62 54.83 366.62 68.79 326.34 68.79 326.34 325.43 312.75 339.1 265.78 339.1 265.78 383.78 244.57 383.78 219.57 238.45 248.1 45.06 376.17 36.77 380.62 38.36"/><polygon class="cls-1" points="682.9 257.96 676.23 295.67 655.95 295.67 649.6 257.99 656.59 245.99 656.59 147.81 643.97 135.5 621.39 135.5 645.43 184.23 600.49 295.71 634.71 341.38 634.71 480.71 588.92 480.71 603.18 442.32 591.15 358.95 570.04 345.43 570.04 480.71 522.61 480.71 539.01 441.61 524.75 358.95 498.36 339.3 491.95 311.58 343.22 311.58 343.22 480.71 296.58 480.71 312.98 443.03 299.2 359.8 285.52 351.73 285.52 480.71 240.25 480.71 254.52 441.61 245.44 388.81 271.43 388.81 271.43 344.13 315.83 344.13 332 327.88 332 73.82 369.69 73.82 386.28 57.29 386.28 40.39 496.67 79.89 603.28 98.8 612.06 116.6 652.24 116.6 676.49 139.54 676.49 245.92 676.23 245.92 682.9 257.96"/><path class="cls-2" d="M501.7,163.58H483.75l-6.6,6.08v6.85h-91L367.7,195H330.19v4.81H369.7l18.46-18.47h89v6.3l6.6,6.62H501.7l6.1-6.62v-18Zm1.3,22-3.29,3.83h-14L482,185.61v-14l3.79-3.25h14l3.29,3.25Z"/><path class="cls-2" d="M458.42,122.6h-18l-6.52,6.18v6.74H377.27l-29.44,29.54H329.56v4.8h20.26l29.45-29.54h54.67v6.42l6.52,6.51h18l6.17-6.51v-18Zm1.37,22.14-3.37,3.71h-14l-3.71-3.71v-14l3.71-3.37h14l3.37,3.37Z"/><polygon class="cls-1" points="57.57 189.8 53.96 186.1 53.96 172.13 57.57 168.76 71.53 168.76 75.01 172.13 75.01 186.1 71.53 189.8 57.57 189.8"/><polygon class="cls-1" points="54 278.43 16.83 278.43 10.39 271.72 10.39 266.49 14.97 262.55 21.47 262.55 21.47 257.75 13.24 257.75 5.59 264.23 5.59 266.91 0.07 261.46 0 224.36 54 278.43"/><polyline class="cls-3" points="16.83 278.29 10.26 271.72 5.45 266.91 0 261.46"/><polygon class="cls-1" points="60.98 112.21 60.98 141.43 84.32 141.43 96.43 129.1 96.43 50.34 71.32 75.29 71.32 101.31 60.98 112.21"/><path class="cls-1" d="M328.63,0H218.49L101.23,93.68v37.39L86.29,146.23H55.44V110.11L66.89,98.38V93.79H59.72L.05,154.21v63.11L23,240.37V193.72l17.29-14.26h8.92v-9.32L55.57,164H73.52l6.29,6.18v18l-6.29,6.51H55.57l-6.41-6.51v-3.46H42.09l-14,11.51V245.5l70.2,70.14L130,284l100.48,99.83h35.26V339.1h47l13.6-13.67V68.79h40.28l14-14V14.94ZM134.14,169.12H107.88v-4.79h24.3l11.87-11.53-2.42-6.57H107.88v-4.8H145l4.63,12.64Z"/><path d="M64.84,549.22H47.21v84.61H33.11V549.22H15.48v-14.1H64.84Z"/><path d="M123.36,633.83H81.06V535.12h42.3v14.1H95.16V574.6h21.15v14.11H95.16v31h28.2Z"/><path d="M190.63,619.73a14.13,14.13,0,0,1-14.1,14.1H155.38a14.14,14.14,0,0,1-14.11-14.1V549.22a14.14,14.14,0,0,1,14.11-14.1h21.15a14.13,14.13,0,0,1,14.1,14.1v14.1h-14.1v-14.1H155.38v70.51h21.15v-14.1h14.1Z"/><path d="M256.92,633.83H242.81V588.71H221.66v45.12h-14.1V535.12h14.1V574.6h21.15V535.12h14.11Z"/><path d="M313.47,633.83H278.21V535.12h7.05v91.66h28.21Z"/><path d="M386.52,633.83h-7.9l-3.38-17.62H344.92l-3.53,17.62h-7.9l21.16-98.71h10.71Zm-12.84-24.68-13.39-65.43-13.82,65.43Z"/><path d="M449.56,633.83h-7.05V585.18H414.3v48.65h-7.05V535.12h7.05v43h28.21v-43h7.05Z"/><path d="M514.71,619.73a14.14,14.14,0,0,1-14.1,14.1h-14.1a14.14,14.14,0,0,1-14.11-14.1V549.22a14.14,14.14,0,0,1,14.11-14.1h14.1a14.14,14.14,0,0,1,14.1,14.1Zm-7.05-70.51a7,7,0,0,0-7.05-7.05h-14.1a7.07,7.07,0,0,0-7.05,7.05v70.51a7.07,7.07,0,0,0,7.05,7h14.1a7,7,0,0,0,7.05-7Z"/><path d="M593.69,633.83h-7.05V546.54l-20.17,73.19H562l-20.17-73.19v87.29h-7V535.12h10.72l18.75,68.68L583,535.12h10.72Z"/><path d="M667.44,633.83h-7.89l-3.39-17.62H625.84l-3.52,17.62h-7.9l21.15-98.71h10.72Zm-12.83-24.68-13.4-65.43-13.82,65.43Z"/></g></g></svg>